<?xml version="1.0" encoding="UTF-8"?>
<svg id="Layer_1" data-name="Layer 1" xmlns="http://www.w3.org/2000/svg" viewBox="0 0 279.41 202.72">
  <defs>
    <style>
      .cls-1 {
        isolation: isolate;
        opacity: .34;
      }
    </style>
  </defs>
  <path d="M140.52,0c17.2,0,93.6,48.5,135,79.6,6.6,5,4.1,11.8-2.3,17.7-4.6,4.2-15.1,9.8-21.2,9.4-15.2-1-112.3-68.7-112.3-68.7-.9,0-59.3,37.9-103.3,63.3-3.6,2.1-18.7,4-28.5-2.1C-.28,94-1.68,80.9,2.22,78.4,46.82,49.8,113.72,0,140.52,0Z"/>
  <path class="cls-1" d="M140.52,96c17.2,0,93.6,48.5,135,79.6,6.6,5,4.1,11.9-2.3,17.7-4.6,4.2-15.1,9.8-21.2,9.4-15.2-1-112.3-68.7-112.3-68.7-.9,0-59.3,37.9-103.3,63.3-3.6,2.1-18.7,4-28.5-2.1-8.3-5.2-9.8-18.2-5.8-20.7,44.8-28.8,111.6-78.5,138.4-78.5h0Z"/>
</svg>